<?xml version="1.0" encoding="UTF-8"?>
<svg version="1.1" xmlns="http://www.w3.org/2000/svg" width="512" height="512">
<path d="M0 0 C0.79249146 -0.0087616 1.58498291 -0.01752319 2.40148926 -0.02655029 C5.01301325 -0.04850145 7.62283474 -0.0340079 10.234375 -0.01708984 C12.05371423 -0.02045924 13.87305127 -0.02531288 15.69238281 -0.03158569 C19.5021715 -0.03895118 23.31137337 -0.02826218 27.12109375 -0.00488281 C32.00065826 0.02360505 36.87884775 0.00719931 41.75836182 -0.02274513 C45.51426524 -0.04082702 49.26984353 -0.03505605 53.02575684 -0.02210617 C54.824668 -0.01877461 56.62360885 -0.02285047 58.42248535 -0.03450394 C60.9387003 -0.04722781 63.45269979 -0.02781685 65.96875 0 C67.08014343 -0.01518173 67.08014343 -0.01518173 68.21398926 -0.03067017 C72.04477672 0.04765074 73.85639558 0.55045283 76.94590759 2.88050842 C79.10437167 5.80982368 79.6113437 6.99097623 79.61547852 10.55737305 C79.62801163 11.50508072 79.64054474 12.45278839 79.65345764 13.42921448 C79.64019943 14.44080124 79.62694122 15.452388 79.61328125 16.49462891 C79.61569321 17.54347763 79.61810516 18.59232635 79.62059021 19.67295837 C79.61961232 21.88609607 79.60623265 24.0992584 79.58129883 26.31225586 C79.54695716 29.70136438 79.56065236 33.08787021 79.58007812 36.47705078 C79.57318058 38.6287546 79.56350903 40.78045168 79.55078125 42.93212891 C79.55822105 44.45254539 79.55822105 44.45254539 79.56581116 46.00367737 C79.54997482 46.94823288 79.53413849 47.89278839 79.51782227 48.8659668 C79.51162369 49.69471817 79.50542511 50.52346954 79.4990387 51.37733459 C78.76068634 54.63342712 77.7182683 55.73056019 74.984375 57.64697266 C72.15375095 58.04163244 69.71207046 58.19450421 66.8828125 58.16455078 C65.66262421 58.1750647 65.66262421 58.1750647 64.41778564 58.18579102 C61.73130058 58.20338324 59.0458706 58.19174429 56.359375 58.17822266 C54.49137164 58.18091723 52.62336965 58.18479935 50.75537109 58.18981934 C46.84133545 58.19571604 42.92766505 58.18714593 39.01367188 58.16845703 C33.99627611 58.14566734 28.97973619 58.1587895 23.96237183 58.18274689 C20.10532176 58.19720025 16.24847463 58.19260101 12.39141846 58.18223572 C10.54144184 58.17956715 8.69144681 58.18284276 6.8414917 58.19215393 C4.25581043 58.20231203 1.67151549 58.18682976 -0.9140625 58.16455078 C-1.67885925 58.17264771 -2.44365601 58.18074463 -3.23162842 58.18908691 C-6.63531151 58.13474753 -8.67075638 57.88871967 -11.4886322 55.91343689 C-13.24182231 53.31123556 -13.52578935 51.97889798 -13.54907227 48.8659668 C-13.5649086 47.92141129 -13.58074493 46.97685577 -13.59706116 46.00367737 C-13.59210129 44.99006638 -13.58714142 43.97645538 -13.58203125 42.93212891 C-13.58822983 41.88423691 -13.59442841 40.83634491 -13.60081482 39.75669861 C-13.60791485 37.5418287 -13.60473584 35.32690545 -13.59204102 33.11206055 C-13.57818814 29.72491048 -13.61223027 26.34052945 -13.65039062 22.95361328 C-13.65134194 20.80061781 -13.64948232 18.64761889 -13.64453125 16.49462891 C-13.65778946 15.48304214 -13.67104767 14.47145538 -13.68470764 13.42921448 C-13.67217453 12.48150681 -13.65964142 11.53379913 -13.64672852 10.55737305 C-13.64528587 9.3130526 -13.64528587 9.3130526 -13.64381409 8.04359436 C-11.79349831 0.98440305 -6.46720839 -0.08834264 0 0 Z " fill="#F755B0" transform="translate(20.015625,382.35302734375)"/>
<path d="M0 0 C1.2516394 -0.01051392 1.2516394 -0.01051392 2.52856445 -0.02124023 C5.29021359 -0.03886347 8.05084022 -0.02718244 10.8125 -0.01367188 C12.72916867 -0.01636555 14.64583601 -0.02024693 16.5625 -0.02526855 C20.58086142 -0.03116946 24.59886737 -0.0225816 28.6171875 -0.00390625 C33.77258599 0.01888364 38.92715161 0.00576373 44.08251953 -0.01819611 C48.04075415 -0.03263809 51.99879073 -0.02805545 55.95703125 -0.01768494 C57.85807391 -0.01501322 59.75913446 -0.01830299 61.66015625 -0.02760315 C64.31558985 -0.03774251 66.96966761 -0.0223051 69.625 0 C70.80799683 -0.01214539 70.80799683 -0.01214539 72.01489258 -0.02453613 C77.28488229 0.05763321 77.28488229 0.05763321 79.79995728 2.25012207 C80.93713566 4.79668328 81.19269405 6.53018244 81.20068359 9.31445312 C81.21014008 10.26223633 81.21959656 11.21001953 81.2293396 12.18652344 C81.22326691 13.20327148 81.21719421 14.22001953 81.2109375 15.26757812 C81.21380768 16.3178418 81.21667786 17.36810547 81.21963501 18.45019531 C81.22167521 20.66927632 81.21614845 22.88837533 81.20361328 25.10742188 C81.18755959 28.50496618 81.20346407 31.90132084 81.22265625 35.29882812 C81.22067381 37.45508075 81.21683012 39.61133264 81.2109375 41.76757812 C81.21701019 42.78432617 81.22308289 43.80107422 81.2293396 44.84863281 C81.21515488 46.27030762 81.21515488 46.27030762 81.20068359 47.72070312 C81.19829681 48.5524707 81.19591003 49.38423828 81.19345093 50.24121094 C80.71913926 53.07545397 79.77318811 54.43964661 77.8125 56.51757812 C74.22264549 57.71419629 70.94449185 57.6729839 67.20751953 57.67871094 C66.43482727 57.68367584 65.66213501 57.68864075 64.86602783 57.6937561 C62.30911367 57.70836451 59.75226154 57.71517729 57.1953125 57.72070312 C55.41795856 57.72645539 53.64060464 57.73221311 51.86325073 57.73797607 C48.13588166 57.7484821 44.40853414 57.75432747 40.68115234 57.7578125 C35.90725496 57.76329834 31.13364263 57.78732989 26.35983467 57.81578445 C22.68809173 57.83441604 19.01641741 57.8396167 15.3446312 57.84114838 C13.58478104 57.84417394 11.82493207 57.85219923 10.06512833 57.86533356 C7.60195518 57.88240615 5.13947799 57.88051112 2.67626953 57.87402344 C1.95089996 57.88323822 1.2255304 57.892453 0.47817993 57.90194702 C-3.91098366 57.86576972 -6.69713221 57.21871329 -10.1875 54.51757812 C-11.38329083 52.12599646 -11.32683042 50.61783907 -11.34863281 47.94775391 C-11.35824036 46.99981964 -11.3678479 46.05188538 -11.37774658 45.07522583 C-11.38199646 44.04815521 -11.38624634 43.02108459 -11.390625 41.96289062 C-11.39632507 40.90979706 -11.40202515 39.85670349 -11.40789795 38.771698 C-11.4173557 36.54068001 -11.423885 34.309648 -11.42773438 32.07861328 C-11.43744057 28.66348936 -11.46845737 25.24896696 -11.5 21.83398438 C-11.50652983 19.66862337 -11.51178038 17.50325806 -11.515625 15.33789062 C-11.5279718 14.31486847 -11.5403186 13.29184631 -11.55303955 12.23782349 C-11.55003845 11.2835849 -11.54703735 10.32934631 -11.54394531 9.34619141 C-11.54759094 8.50839142 -11.55123657 7.67059143 -11.55499268 6.80740356 C-10.44770354 -0.09205048 -6.08320208 -0.06245396 0 0 Z " fill="#F655B1" transform="translate(18.1875,175.482421875)"/>
<path d="M0 0 C0.81345886 -0.00700928 1.62691772 -0.01401855 2.46502686 -0.02124023 C5.15151192 -0.03883246 7.8369419 -0.02719351 10.5234375 -0.01367188 C12.39144086 -0.01636645 14.25944285 -0.02024857 16.12744141 -0.02526855 C20.04147705 -0.03116525 23.95514745 -0.02259515 27.86914062 -0.00390625 C32.88653639 0.01888345 37.90307631 0.00576128 42.92044067 -0.01819611 C46.77749074 -0.03264946 50.63433787 -0.02805023 54.49139404 -0.01768494 C56.34137066 -0.01501637 58.19136569 -0.01829198 60.0413208 -0.02760315 C62.62700207 -0.03776125 65.21129701 -0.02227898 67.796875 0 C68.56167175 -0.00809692 69.32646851 -0.01619385 70.11444092 -0.02453613 C73.51812401 0.02980325 75.55356888 0.27583112 78.3714447 2.25111389 C80.12463481 4.85331522 80.40860185 6.18565281 80.43188477 9.29858398 C80.4477211 10.2431395 80.46355743 11.18769501 80.47987366 12.16087341 C80.47491379 13.17448441 80.46995392 14.1880954 80.46484375 15.23242188 C80.47104233 16.28031387 80.47724091 17.32820587 80.48362732 18.40785217 C80.49072735 20.62272208 80.48754834 22.83764533 80.47485352 25.05249023 C80.46100064 28.43964031 80.49504277 31.82402134 80.53320312 35.2109375 C80.53415444 37.36393297 80.53229482 39.51693189 80.52734375 41.66992188 C80.54060196 42.68150864 80.55386017 43.6930954 80.56752014 44.7353363 C80.54872047 46.15689781 80.54872047 46.15689781 80.52954102 47.60717773 C80.52857925 48.4367247 80.52761749 49.26627167 80.52662659 50.12095642 C79.56388232 53.79394892 77.90472182 55.25029139 74.8984375 57.51757812 C72.02689467 58.01292212 69.74825328 58.20369295 66.8828125 58.16455078 C66.09032104 58.17331238 65.29782959 58.18207397 64.48132324 58.19110107 C61.86979925 58.21305223 59.25997776 58.19855868 56.6484375 58.18164062 C54.82909827 58.18501002 53.00976123 58.18986367 51.19042969 58.19613647 C47.380641 58.20350196 43.57143913 58.19281296 39.76171875 58.16943359 C34.88215424 58.14094573 30.00396475 58.15735148 25.12445068 58.18729591 C21.36854726 58.20537781 17.61296897 58.19960683 13.85705566 58.18665695 C12.0581445 58.18332539 10.25920365 58.18740125 8.46032715 58.19905472 C5.9441122 58.21177859 3.43011271 58.19236763 0.9140625 58.16455078 C0.17313354 58.17467194 -0.56779541 58.18479309 -1.33117676 58.19522095 C-5.16196422 58.11690004 -6.97358308 57.61409795 -10.06309509 55.28404236 C-12.22155917 52.3547271 -12.7285312 51.17357455 -12.73266602 47.60717773 C-12.74519913 46.65947006 -12.75773224 45.71176239 -12.77064514 44.7353363 C-12.75738693 43.72374954 -12.74412872 42.71216278 -12.73046875 41.66992188 C-12.73288071 40.62107315 -12.73529266 39.57222443 -12.73777771 38.49159241 C-12.73679982 36.27845471 -12.72342015 34.06529238 -12.69848633 31.85229492 C-12.66414466 28.4631864 -12.67783986 25.07668057 -12.69726562 21.6875 C-12.69036808 19.53579619 -12.68069653 17.3840991 -12.66796875 15.23242188 C-12.67292862 14.21881088 -12.67788849 13.20519989 -12.68299866 12.16087341 C-12.66716232 11.2163179 -12.65132599 10.27176239 -12.63500977 9.29858398 C-12.62881119 8.46983261 -12.62261261 7.64108124 -12.6162262 6.78721619 C-11.0917518 0.0643695 -5.92494387 -0.06272754 0 0 Z " fill="#F755B0" transform="translate(19.1015625,71.482421875)"/>
<path d="M0 0 C0.78405212 -0.00335861 1.56810425 -0.00671722 2.37591553 -0.01017761 C4.97010885 -0.01968369 7.56423761 -0.0216305 10.15844727 -0.02270508 C11.96061734 -0.02591769 13.76278715 -0.02928177 15.56495667 -0.03279114 C19.34360356 -0.0387814 23.12222759 -0.04063112 26.90087891 -0.04003906 C31.7443126 -0.0399374 36.58759984 -0.05359435 41.4309988 -0.07081127 C45.15331192 -0.08192548 48.87558955 -0.08395846 52.59791756 -0.08342934 C54.38370329 -0.08461014 56.16948991 -0.08903756 57.95525932 -0.0967617 C60.45204837 -0.1065507 62.9485184 -0.103688 65.4453125 -0.09765625 C66.18362808 -0.10327576 66.92194366 -0.10889526 67.68263245 -0.11468506 C71.35073816 -0.09214864 74.23229975 -0.01106524 77.28735352 2.14526367 C78.5073353 4.58522725 78.42719669 6.18707515 78.44848633 8.91455078 C78.45809387 9.90575424 78.46770142 10.8969577 78.4776001 11.91819763 C78.48184998 12.99215286 78.48609985 14.06610809 78.49047852 15.17260742 C78.49617859 16.27246475 78.50187866 17.37232208 78.50775146 18.50550842 C78.51720908 20.83487991 78.52373846 23.16426483 78.52758789 25.49365234 C78.53730411 29.06460765 78.56832527 32.63499016 78.59985352 36.20581055 C78.60638228 38.46557274 78.61163325 40.72533907 78.61547852 42.98510742 C78.62782532 44.05703842 78.64017212 45.12896942 78.65289307 46.23338318 C78.64989197 47.2277388 78.64689087 48.22209442 78.64379883 49.24658203 C78.64926727 50.55990761 78.64926727 50.55990761 78.65484619 51.89976501 C78.28735352 54.14526367 78.28735352 54.14526367 77.27105713 55.9271698 C74.1091419 57.86874491 70.79192702 57.56150191 67.19165039 57.53344727 C65.95464134 57.5413327 65.95464134 57.5413327 64.69264221 57.54937744 C61.96360395 57.56259343 59.23514783 57.55383382 56.50610352 57.54370117 C54.61185596 57.54572145 52.71760915 57.5486325 50.82336426 57.55239868 C46.85213826 57.5568242 42.8811146 57.55038365 38.90991211 57.53637695 C33.81517176 57.51928495 28.7209055 57.52912491 23.62618256 57.54709435 C19.71429867 57.55792603 15.80252751 57.55448867 11.89064026 57.54671097 C10.01192672 57.54470726 8.133203 57.54717421 6.25450134 57.55414963 C3.63041001 57.56175401 1.00709038 57.55017443 -1.61694336 57.53344727 C-2.39625717 57.53951996 -3.17557098 57.54559265 -3.97850037 57.55184937 C-6.91778636 57.517073 -9.15278222 57.48950055 -11.69535828 55.92617798 C-13.03463288 53.5815786 -13.08690801 51.96155886 -13.08496094 49.26245117 C-13.09118973 48.27132324 -13.09741852 47.28019531 -13.10383606 46.2590332 C-13.09462631 45.19023926 -13.08541656 44.12144531 -13.07592773 43.02026367 C-13.07642624 41.92182129 -13.07692474 40.82337891 -13.07743835 39.69165039 C-13.07509686 37.36822705 -13.06536396 35.04480122 -13.04882812 32.72143555 C-13.02523981 29.15935653 -13.02826633 25.5980259 -13.03491211 22.03588867 C-13.02933535 19.78067586 -13.02222549 17.52546622 -13.01342773 15.27026367 C-13.01433914 14.20146973 -13.01525055 13.13267578 -13.01618958 12.03149414 C-13.00665756 11.04036621 -12.99712555 10.04923828 -12.98730469 9.02807617 C-12.9826973 8.15554199 -12.9780899 7.28300781 -12.9733429 6.3840332 C-12.71264648 4.14526367 -12.71264648 4.14526367 -10.71264648 1.14526367 C-7.08950677 -0.06244957 -3.77168626 -0.00230877 0 0 Z " fill="#F754B1" transform="translate(214.712646484375,330.854736328125)"/>
<path d="M0 0 C1.23700905 -0.00788544 1.23700905 -0.00788544 2.49900818 -0.01593018 C5.22804644 -0.02914616 7.95650256 -0.02038655 10.68554688 -0.01025391 C12.57979444 -0.01227418 14.47404124 -0.01518524 16.36828613 -0.01895142 C20.33951213 -0.02337693 24.31053579 -0.01693639 28.28173828 -0.00292969 C33.37647863 0.01416232 38.47074489 0.00432235 43.56546783 -0.01364708 C47.47735172 -0.02447877 51.38912289 -0.02104141 55.30101013 -0.0132637 C57.17972367 -0.01125999 59.05844739 -0.01372695 60.93714905 -0.02070236 C63.56124039 -0.02830674 66.18456001 -0.01672716 68.80859375 0 C69.58790756 -0.00607269 70.36722137 -0.01214539 71.17015076 -0.0184021 C74.10943675 0.01637427 76.34443261 0.04394671 78.88700867 1.60726929 C80.22628327 3.95186866 80.2785584 5.57188841 80.27661133 8.27099609 C80.28595451 9.75768799 80.28595451 9.75768799 80.29548645 11.27441406 C80.2862767 12.34320801 80.27706696 13.41200195 80.26757812 14.51318359 C80.26832588 16.16084717 80.26832588 16.16084717 80.26908875 17.84179688 C80.26674725 20.16522022 80.25701435 22.48864604 80.24047852 24.81201172 C80.2168902 28.37409073 80.21991672 31.93542136 80.2265625 35.49755859 C80.22098574 37.7527714 80.21387588 40.00798105 80.20507812 42.26318359 C80.20598953 43.33197754 80.20690094 44.40077148 80.20783997 45.50195312 C80.19830795 46.49308105 80.18877594 47.48420898 80.17895508 48.50537109 C80.17204399 49.81417236 80.17204399 49.81417236 80.16499329 51.14941406 C79.90429688 53.38818359 79.90429688 53.38818359 77.90429688 56.38818359 C74.28115716 57.59589683 70.96333665 57.53575604 67.19165039 57.53344727 C66.40759827 57.53680588 65.62354614 57.54016449 64.81573486 57.54362488 C62.22154154 57.55313096 59.62741278 57.55507776 57.03320312 57.55615234 C55.23103305 57.55936496 53.42886324 57.56272904 51.62669373 57.5662384 C47.84804683 57.57222867 44.0694228 57.57407839 40.29077148 57.57348633 C35.44733779 57.57338467 30.60405056 57.58704162 25.76065159 57.60425854 C22.03833847 57.61537274 18.31606084 57.61740572 14.59373283 57.6168766 C12.80794711 57.61805741 11.02216048 57.62248482 9.23639107 57.63020897 C6.73960202 57.63999796 4.24313199 57.63713527 1.74633789 57.63110352 C0.63886452 57.63953278 0.63886452 57.63953278 -0.49098206 57.64813232 C-4.15908777 57.62559591 -7.04064936 57.54451251 -10.09570312 55.38818359 C-11.31568491 52.94822002 -11.2355463 51.34637211 -11.25683594 48.61889648 C-11.26644348 47.62769302 -11.27605103 46.63648956 -11.28594971 45.61524963 C-11.29019958 44.5412944 -11.29444946 43.46733917 -11.29882812 42.36083984 C-11.3045282 41.26098251 -11.31022827 40.16112518 -11.31610107 39.02793884 C-11.32555869 36.69856735 -11.33208807 34.36918243 -11.3359375 32.03979492 C-11.34565372 28.46883961 -11.37667488 24.89845711 -11.40820312 21.32763672 C-11.41473189 19.06787452 -11.41998285 16.8081082 -11.42382812 14.54833984 C-11.43617493 13.47640884 -11.44852173 12.40447784 -11.46124268 11.30006409 C-11.45824158 10.30570847 -11.45524048 9.31135284 -11.45214844 8.28686523 C-11.45579407 7.41131485 -11.4594397 6.53576447 -11.4631958 5.63368225 C-11.09570312 3.38818359 -11.09570312 3.38818359 -10.07940674 1.60627747 C-6.91749151 -0.33529765 -3.60027663 -0.02805465 0 0 Z " fill="#F754B1" transform="translate(213.095703125,123.61181640625)"/>
<path d="M0 0 C1.2516394 -0.01051392 1.2516394 -0.01051392 2.52856445 -0.02124023 C5.29021359 -0.03886347 8.05084022 -0.02718244 10.8125 -0.01367188 C12.72916867 -0.01636555 14.64583601 -0.02024693 16.5625 -0.02526855 C20.58086142 -0.03116946 24.59886737 -0.0225816 28.6171875 -0.00390625 C33.77258599 0.01888364 38.92715161 0.00576373 44.08251953 -0.01819611 C48.04075415 -0.03263809 51.99879073 -0.02805545 55.95703125 -0.01768494 C57.85807391 -0.01501322 59.75913446 -0.01830299 61.66015625 -0.02760315 C64.31558985 -0.03774251 66.96966761 -0.0223051 69.625 0 C70.80799683 -0.01214539 70.80799683 -0.01214539 72.01489258 -0.02453613 C77.28488229 0.05763321 77.28488229 0.05763321 79.79995728 2.25012207 C80.93713566 4.79668328 81.19269405 6.53018244 81.20068359 9.31445312 C81.21014008 10.26223633 81.21959656 11.21001953 81.2293396 12.18652344 C81.22326691 13.20327148 81.21719421 14.22001953 81.2109375 15.26757812 C81.21380768 16.3178418 81.21667786 17.36810547 81.21963501 18.45019531 C81.22167521 20.66927632 81.21614845 22.88837533 81.20361328 25.10742188 C81.18755959 28.50496618 81.20346407 31.90132084 81.22265625 35.29882812 C81.22067381 37.45508075 81.21683012 39.61133264 81.2109375 41.76757812 C81.21701019 42.78432617 81.22308289 43.80107422 81.2293396 44.84863281 C81.21515488 46.27030762 81.21515488 46.27030762 81.20068359 47.72070312 C81.19829681 48.5524707 81.19591003 49.38423828 81.19345093 50.24121094 C80.68773358 53.2631182 80.14268136 54.48626824 77.8125 56.51757812 C74.95681929 56.91988336 72.4830697 57.06449898 69.625 57.03515625 C68.3733606 57.04567017 68.3733606 57.04567017 67.09643555 57.05639648 C64.33478641 57.07401972 61.57415978 57.06233869 58.8125 57.04882812 C56.89583133 57.0515218 54.97916399 57.05540318 53.0625 57.0604248 C49.04413858 57.06632571 45.02613263 57.05773785 41.0078125 57.0390625 C35.85241401 57.01627261 30.69784839 57.02939252 25.54248047 57.05335236 C21.58424585 57.06779434 17.62620927 57.0632117 13.66796875 57.05284119 C11.76692609 57.05016947 9.86586554 57.05345924 7.96484375 57.0627594 C5.30941015 57.07289876 2.65533239 57.05746135 0 57.03515625 C-0.78866455 57.04325317 -1.5773291 57.0513501 -2.38989258 57.05969238 C-7.65988229 56.97752304 -7.65988229 56.97752304 -10.17495728 54.78503418 C-11.31213566 52.23847297 -11.56769405 50.50497381 -11.57568359 47.72070312 C-11.58514008 46.77291992 -11.59459656 45.82513672 -11.6043396 44.84863281 C-11.59826691 43.83188477 -11.59219421 42.81513672 -11.5859375 41.76757812 C-11.58880768 40.71731445 -11.59167786 39.66705078 -11.59463501 38.58496094 C-11.59667521 36.36587993 -11.59114845 34.14678092 -11.57861328 31.92773438 C-11.56255959 28.53019007 -11.57846407 25.13383541 -11.59765625 21.73632812 C-11.59567381 19.5800755 -11.59183012 17.42382361 -11.5859375 15.26757812 C-11.59201019 14.25083008 -11.59808289 13.23408203 -11.6043396 12.18652344 C-11.59488312 11.23874023 -11.58542664 10.29095703 -11.57568359 9.31445312 C-11.57329681 8.48268555 -11.57091003 7.65091797 -11.56845093 6.79394531 C-10.4169045 -0.08710498 -6.08848457 -0.06250819 0 0 Z " fill="#F755B0" transform="translate(18.1875,279.482421875)"/>
<path d="M0 0 C1.2516394 -0.01051392 1.2516394 -0.01051392 2.52856445 -0.02124023 C5.29021359 -0.03886347 8.05084022 -0.02718244 10.8125 -0.01367188 C12.72916867 -0.01636555 14.64583601 -0.02024693 16.5625 -0.02526855 C20.58086142 -0.03116946 24.59886737 -0.0225816 28.6171875 -0.00390625 C33.77258599 0.01888364 38.92715161 0.00576373 44.08251953 -0.01819611 C48.04075415 -0.03263809 51.99879073 -0.02805545 55.95703125 -0.01768494 C57.85807391 -0.01501322 59.75913446 -0.01830299 61.66015625 -0.02760315 C64.31558985 -0.03774251 66.96966761 -0.0223051 69.625 0 C70.80799683 -0.01214539 70.80799683 -0.01214539 72.01489258 -0.02453613 C77.28488229 0.05763321 77.28488229 0.05763321 79.79995728 2.25012207 C80.93713566 4.79668328 81.19269405 6.53018244 81.20068359 9.31445312 C81.21014008 10.26223633 81.21959656 11.21001953 81.2293396 12.18652344 C81.22326691 13.20327148 81.21719421 14.22001953 81.2109375 15.26757812 C81.21380768 16.3178418 81.21667786 17.36810547 81.21963501 18.45019531 C81.22167521 20.66927632 81.21614845 22.88837533 81.20361328 25.10742188 C81.18755959 28.50496618 81.20346407 31.90132084 81.22265625 35.29882812 C81.22067381 37.45508075 81.21683012 39.61133264 81.2109375 41.76757812 C81.21701019 42.78432617 81.22308289 43.80107422 81.2293396 44.84863281 C81.21515488 46.27030762 81.21515488 46.27030762 81.20068359 47.72070312 C81.19829681 48.5524707 81.19591003 49.38423828 81.19345093 50.24121094 C80.68773358 53.2631182 80.14268136 54.48626824 77.8125 56.51757812 C74.95681929 56.91988336 72.4830697 57.06449898 69.625 57.03515625 C68.3733606 57.04567017 68.3733606 57.04567017 67.09643555 57.05639648 C64.33478641 57.07401972 61.57415978 57.06233869 58.8125 57.04882812 C56.89583133 57.0515218 54.97916399 57.05540318 53.0625 57.0604248 C49.04413858 57.06632571 45.02613263 57.05773785 41.0078125 57.0390625 C35.85241401 57.01627261 30.69784839 57.02939252 25.54248047 57.05335236 C21.58424585 57.06779434 17.62620927 57.0632117 13.66796875 57.05284119 C11.76692609 57.05016947 9.86586554 57.05345924 7.96484375 57.0627594 C5.30941015 57.07289876 2.65533239 57.05746135 0 57.03515625 C-0.78866455 57.04325317 -1.5773291 57.0513501 -2.38989258 57.05969238 C-7.65988229 56.97752304 -7.65988229 56.97752304 -10.17495728 54.78503418 C-11.31213566 52.23847297 -11.56769405 50.50497381 -11.57568359 47.72070312 C-11.58514008 46.77291992 -11.59459656 45.82513672 -11.6043396 44.84863281 C-11.59826691 43.83188477 -11.59219421 42.81513672 -11.5859375 41.76757812 C-11.58880768 40.71731445 -11.59167786 39.66705078 -11.59463501 38.58496094 C-11.59667521 36.36587993 -11.59114845 34.14678092 -11.57861328 31.92773438 C-11.56255959 28.53019007 -11.57846407 25.13383541 -11.59765625 21.73632812 C-11.59567381 19.5800755 -11.59183012 17.42382361 -11.5859375 15.26757812 C-11.59201019 14.25083008 -11.59808289 13.23408203 -11.6043396 12.18652344 C-11.59488312 11.23874023 -11.58542664 10.29095703 -11.57568359 9.31445312 C-11.57329681 8.48268555 -11.57091003 7.65091797 -11.56845093 6.79394531 C-10.4169045 -0.08710498 -6.08848457 -0.06250819 0 0 Z " fill="#F754B1" transform="translate(424.1875,227.482421875)"/>
<path d="M0 0 C13.86 0 27.72 0 42 0 C42 33.99 42 67.98 42 103 C53.55 103 65.1 103 77 103 C77 106.96 77 110.92 77 115 C65.45 115 53.9 115 42 115 C42 148.99 42 182.98 42 218 C28.14 218 14.28 218 0 218 C0 214.37 0 210.74 0 207 C10.23 207 20.46 207 31 207 C31 142.32 31 77.64 31 11 C20.77 11 10.54 11 0 11 C0 7.37 0 3.74 0 0 Z " fill="#F654B0" transform="translate(323,147)"/>
<path d="M0 0 C13.86 0 27.72 0 42 0 C42 17.16 42 34.32 42 52 C53.55 52 65.1 52 77 52 C77 55.63 77 59.26 77 63 C65.45 63 53.9 63 42 63 C42 80.16 42 97.32 42 115 C28.14 115 14.28 115 0 115 C0 111.37 0 107.74 0 104 C10.23 104 20.46 104 31 104 C31 73.64 31 43.28 31 12 C20.77 12 10.54 12 0 12 C0 8.04 0 4.08 0 0 Z " fill="#F655B1" transform="translate(112,302)"/>
<path d="M0 0 C13.86 0 27.72 0 42 0 C42 17.16 42 34.32 42 52 C53.55 52 65.1 52 77 52 C77 55.63 77 59.26 77 63 C65.45 63 53.9 63 42 63 C42 80.16 42 97.32 42 115 C28.14 115 14.28 115 0 115 C0 111.04 0 107.08 0 103 C10.23 103 20.46 103 31 103 C31 72.64 31 42.28 31 11 C20.77 11 10.54 11 0 11 C0 7.37 0 3.74 0 0 Z " fill="#F655B1" transform="translate(112,95)"/>
</svg>
