<?xml version="1.0" encoding="UTF-8"?>
<svg version="1.1" xmlns="http://www.w3.org/2000/svg" width="512" height="512">
<path d="M0 0 C129.36 0 258.72 0 392 0 C392 9.9 392 19.8 392 30 C401.9 30 411.8 30 422 30 C422 39.9 422 49.8 422 60 C431.9 60 441.8 60 452 60 C452 129.96 452 199.92 452 272 C442.1 272 432.2 272 422 272 C422 281.9 422 291.8 422 302 C412.1 302 402.2 302 392 302 C392 311.9 392 321.8 392 332 C262.64 332 133.28 332 0 332 C0 322.1 0 312.2 0 302 C-9.9 302 -19.8 302 -30 302 C-30 292.1 -30 282.2 -30 272 C-39.9 272 -49.8 272 -60 272 C-60 202.04 -60 132.08 -60 60 C-50.1 60 -40.2 60 -30 60 C-30 50.1 -30 40.2 -30 30 C-20.1 30 -10.2 30 0 30 C0 20.1 0 10.2 0 0 Z " fill="#EA7098" transform="translate(60,90)"/>
<path d="M0 0 C129.36 0 258.72 0 392 0 C392 9.9 392 19.8 392 30 C401.9 30 411.8 30 422 30 C422 39.9 422 49.8 422 60 C431.9 60 441.8 60 452 60 C452 129.96 452 199.92 452 272 C442.1 272 432.2 272 422 272 C422 281.9 422 291.8 422 302 C412.1 302 402.2 302 392 302 C392 311.9 392 321.8 392 332 C262.64 332 133.28 332 0 332 C0 322.1 0 312.2 0 302 C-9.9 302 -19.8 302 -30 302 C-30 292.1 -30 282.2 -30 272 C-39.9 272 -49.8 272 -60 272 C-60 202.04 -60 132.08 -60 60 C-50.1 60 -40.2 60 -30 60 C-30 50.1 -30 40.2 -30 30 C-20.1 30 -10.2 30 0 30 C0 20.1 0 10.2 0 0 Z M0 31 C0 40.9 0 50.8 0 61 C-9.9 61 -19.8 61 -30 61 C-30 130.3 -30 199.6 -30 271 C-19.77 271 -9.54 271 1 271 C1 280.9 1 290.8 1 301 C100 301 199 301 301 301 C301 211.9 301 122.8 301 31 C201.67 31 102.34 31 0 31 Z " fill="#000000" transform="translate(60,90)"/>
<path d="M0 0 C30.03 0 60.06 0 91 0 C91 9.9 91 19.8 91 30 C100.9 30 110.8 30 121 30 C121 99.96 121 169.92 121 242 C111.1 242 101.2 242 91 242 C91 251.9 91 261.8 91 272 C60.97 272 30.94 272 0 272 C0 182.24 0 92.48 0 0 Z " fill="#B3B5D8" transform="translate(391,120)"/>
<path d="M0 0 C9.9 0 19.8 0 30 0 C30 9.9 30 19.8 30 30 C39.9 30 49.8 30 60 30 C60 39.9 60 49.8 60 60 C69.9 60 79.8 60 90 60 C90 69.9 90 79.8 90 90 C80.1 90 70.2 90 60 90 C60 99.9 60 109.8 60 120 C50.1 120 40.2 120 30 120 C30 129.9 30 139.8 30 150 C20.1 150 10.2 150 0 150 C0 140.1 0 130.2 0 120 C-9.9 120 -19.8 120 -30 120 C-30 110.1 -30 100.2 -30 90 C-39.9 90 -49.8 90 -60 90 C-60 80.1 -60 70.2 -60 60 C-50.1 60 -40.2 60 -30 60 C-30 50.1 -30 40.2 -30 30 C-20.1 30 -10.2 30 0 30 C0 20.1 0 10.2 0 0 Z " fill="#FFC906" transform="translate(241,181)"/>
<path d="M0 0 C19.8 0 39.6 0 60 0 C60 89.1 60 178.2 60 270 C30.3 270 0.6 270 -30 270 C-30 260.1 -30 250.2 -30 240 C-20.1 240 -10.2 240 0 240 C0 230.1 0 220.2 0 210 C9.9 210 19.8 210 30 210 C30 150.6 30 91.2 30 30 C20.1 30 10.2 30 0 30 C0 20.1 0 10.2 0 0 Z " fill="#BC4798" transform="translate(301,121)"/>
<path d="M0 0 C19.47 0 38.94 0 59 0 C59.76359485 20.04436491 60.09551745 39.94133591 60 60 C49.77 60 39.54 60 29 60 C29 119.4 29 178.8 29 240 C19.43 240 9.86 240 0 240 C0 160.8 0 81.6 0 0 Z " fill="#E6F1FE" transform="translate(392,121)"/>
<path d="M0 0 C9.9 0 19.8 0 30 0 C30 69.96 30 139.92 30 212 C20.1 212 10.2 212 0 212 C0 142.04 0 72.08 0 0 Z " fill="#000000" transform="translate(482,150)"/>
<path d="M0 0 C9.9 0 19.8 0 30 0 C30 49.5 30 99 30 150 C20.1 150 10.2 150 0 150 C0 100.5 0 51 0 0 Z " fill="#EA729A" transform="translate(422,181)"/>
<path d="M0 0 C30.03 0 60.06 0 91 0 C91 10.23 91 20.46 91 31 C60.97 31 30.94 31 0 31 C0 20.77 0 10.54 0 0 Z " fill="#584699" transform="translate(60,301)"/>
<path d="M0 0 C30.03 0 60.06 0 91 0 C91 10.23 91 20.46 91 31 C60.97 31 30.94 31 0 31 C0 20.77 0 10.54 0 0 Z " fill="#584699" transform="translate(60,180)"/>
<path d="M0 0 C30.03 0 60.06 0 91 0 C91 9.9 91 19.8 91 30 C60.97 30 30.94 30 0 30 C0 20.1 0 10.2 0 0 Z " fill="#54459B" transform="translate(60,241)"/>
<path d="M0 0 C99.66 0 199.32 0 302 0 C302 89.76 302 179.52 302 272 C192.44 272 82.88 272 -30 272 C-30 261.77 -30 251.54 -30 241 C-19.77 241 -9.54 241 1 241 C1 250.9 1 260.8 1 271 C100 271 199 271 301 271 C301 181.9 301 92.8 301 1 C201.67 1 102.34 1 0 1 C0 0.67 0 0.34 0 0 Z " fill="#853C5D" transform="translate(60,120)"/>
<path d="M0 0 C9.9 0 19.8 0 30 0 C30 9.9 30 19.8 30 30 C20.1 30 10.2 30 0 30 C0 20.1 0 10.2 0 0 Z " fill="#000000" transform="translate(452,362)"/>
<path d="M0 0 C9.9 0 19.8 0 30 0 C30 9.9 30 19.8 30 30 C20.1 30 10.2 30 0 30 C0 20.1 0 10.2 0 0 Z " fill="#000000" transform="translate(30,362)"/>
<path d="M0 0 C9.9 0 19.8 0 30 0 C30 9.9 30 19.8 30 30 C20.1 30 10.2 30 0 30 C0 20.1 0 10.2 0 0 Z " fill="#010100" transform="translate(241,301)"/>
<path d="M0 0 C9.9 0 19.8 0 30 0 C30 9.9 30 19.8 30 30 C20.1 30 10.2 30 0 30 C0 20.1 0 10.2 0 0 Z " fill="#010100" transform="translate(271,271)"/>
<path d="M0 0 C9.9 0 19.8 0 30 0 C30 9.9 30 19.8 30 30 C20.1 30 10.2 30 0 30 C0 20.1 0 10.2 0 0 Z " fill="#000000" transform="translate(211,271)"/>
<path d="M0 0 C9.9 0 19.8 0 30 0 C30 9.9 30 19.8 30 30 C20.1 30 10.2 30 0 30 C0 20.1 0 10.2 0 0 Z " fill="#020100" transform="translate(301,241)"/>
<path d="M0 0 C9.9 0 19.8 0 30 0 C30 9.9 30 19.8 30 30 C20.1 30 10.2 30 0 30 C0 20.1 0 10.2 0 0 Z " fill="#F5851E" transform="translate(271,241)"/>
<path d="M0 0 C9.9 0 19.8 0 30 0 C30 9.9 30 19.8 30 30 C20.1 30 10.2 30 0 30 C0 20.1 0 10.2 0 0 Z " fill="#010100" transform="translate(181,241)"/>
<path d="M0 0 C9.9 0 19.8 0 30 0 C30 9.9 30 19.8 30 30 C20.1 30 10.2 30 0 30 C0 20.1 0 10.2 0 0 Z " fill="#010100" transform="translate(271,211)"/>
<path d="M0 0 C9.9 0 19.8 0 30 0 C30 9.9 30 19.8 30 30 C20.1 30 10.2 30 0 30 C0 20.1 0 10.2 0 0 Z " fill="#000000" transform="translate(211,211)"/>
<path d="M0 0 C9.9 0 19.8 0 30 0 C30 9.9 30 19.8 30 30 C20.1 30 10.2 30 0 30 C0 20.1 0 10.2 0 0 Z " fill="#010100" transform="translate(241,181)"/>
<path d="M0 0 C9.9 0 19.8 0 30 0 C30 9.9 30 19.8 30 30 C20.1 30 10.2 30 0 30 C0 20.1 0 10.2 0 0 Z " fill="#000000" transform="translate(452,120)"/>
</svg>
